<svg xmlns="http://www.w3.org/2000/svg" xmlns:xlink="http://www.w3.org/1999/xlink">
    <symbol id="icon-burger" viewBox="0 0 14.739 13.543">
        <g transform="translate(0 1)">
            <line x2="14.739" transform="translate(0 0)"/>
            <line x2="14.739" transform="translate(0 5.771)"/>
            <line x2="14.739" transform="translate(0 11.543)"/>
        </g>
    </symbol>
    <symbol id="icon-comment" viewBox="0 0 20 20">
        <path d="M17.5 12.5C17.5 12.942 17.3244 13.3659 17.0118 13.6785C16.6993 13.9911 16.2754 14.1667 15.8333 14.1667H5.83333L2.5 17.5V4.16667C2.5 3.72464 2.67559 3.30072 2.98816 2.98816C3.30072 2.67559 3.72464 2.5 4.16667 2.5H15.8333C16.2754 2.5 16.6993 2.67559 17.0118 2.98816C17.3244 3.30072 17.5 3.72464 17.5 4.16667V12.5Z"
              stroke-width="2" stroke-linecap="round" stroke-linejoin="round"/>
    </symbol>
    <symbol id="icon-download" viewBox="0 0 11.546 12.316">
        <g transform="translate(2.694)">
            <g transform="translate(0)">
                <path d="M134.121,5.614a.384.384,0,0,0-.35-.226h-1.539v-5A.385.385,0,0,0,131.847,0h-1.54a.385.385,0,0,0-.385.385v5h-1.539a.385.385,0,0,0-.289.638l2.694,3.079a.384.384,0,0,0,.579,0l2.694-3.079A.384.384,0,0,0,134.121,5.614Z"
                      transform="translate(-127.998)"/>
            </g>
        </g>
        <g transform="translate(0 8.467)">
            <path d="M26.007,352v2.309H17.539V352H16v3.079a.77.77,0,0,0,.77.77H26.776a.769.769,0,0,0,.77-.77V352Z"
                  transform="translate(-16 -352)"/>
        </g>
    </symbol>
    <symbol id="icon-facebook" viewBox="0 0 7.24 13.384">
        <path d="M132.525,4.6V2.928a.873.873,0,0,1,.905-.837h.905V0h-1.81a2.618,2.618,0,0,0-2.715,2.51V4.6H128V6.692h1.81v6.692h2.715V6.692h1.81L135.24,4.6Z"
              transform="translate(-128)"/>
    </symbol>
    <symbol id="icon-instagram" viewBox="0 0 13.674 13.676">
        <path d="M14.088,4.021a5,5,0,0,0-.318-1.659,3.5,3.5,0,0,0-2-2A5.01,5.01,0,0,0,10.11.043C9.377.008,9.145,0,7.288,0S5.2.008,4.469.04A5,5,0,0,0,2.81.358,3.337,3.337,0,0,0,1.6,1.149a3.367,3.367,0,0,0-.788,1.21A5.011,5.011,0,0,0,.491,4.018C.457,4.75.449,4.983.449,6.84s.008,2.089.04,2.819a5,5,0,0,0,.318,1.659,3.5,3.5,0,0,0,2,2,5.011,5.011,0,0,0,1.659.318c.729.032.962.04,2.819.04s2.089-.008,2.819-.04a5,5,0,0,0,1.659-.318,3.5,3.5,0,0,0,2-2,5.014,5.014,0,0,0,.318-1.659c.032-.729.04-.962.04-2.819s0-2.089-.035-2.819ZM12.856,9.6a3.749,3.749,0,0,1-.235,1.269,2.269,2.269,0,0,1-1.3,1.3,3.762,3.762,0,0,1-1.269.235c-.721.032-.938.04-2.763.04s-2.044-.008-2.763-.04a3.747,3.747,0,0,1-1.269-.235,2.1,2.1,0,0,1-.785-.51,2.126,2.126,0,0,1-.51-.785,3.763,3.763,0,0,1-.235-1.269c-.032-.721-.04-.938-.04-2.763S1.7,4.8,1.728,4.082a3.747,3.747,0,0,1,.235-1.269,2.079,2.079,0,0,1,.513-.786,2.123,2.123,0,0,1,.785-.51,3.764,3.764,0,0,1,1.269-.235c.721-.032.938-.04,2.763-.04s2.044.008,2.763.04a3.749,3.749,0,0,1,1.269.235,2.1,2.1,0,0,1,.785.51,2.126,2.126,0,0,1,.51.786,3.764,3.764,0,0,1,.235,1.269c.032.721.04.938.04,2.763s-.008,2.039-.04,2.76Zm0,0"
              transform="translate(-0.449 0)"/>
        <path d="M128.462,124.5a3.513,3.513,0,1,0,3.513,3.513A3.514,3.514,0,0,0,128.462,124.5Zm0,5.792a2.279,2.279,0,1,1,2.279-2.279A2.279,2.279,0,0,1,128.462,130.292Zm0,0"
              transform="translate(-121.623 -121.174)"/>
        <path d="M364.09,89.422a.82.82,0,1,1-.82-.82A.82.82,0,0,1,364.09,89.422Zm0,0"
              transform="translate(-352.778 -86.235)"/>
    </symbol>
    <symbol id="icon-like" viewBox="0 0 13.54 12.046">
        <path d="M12.466,1.179A3.641,3.641,0,0,0,9.758,0,3.406,3.406,0,0,0,7.63.734a4.353,4.353,0,0,0-.86.9,4.35,4.35,0,0,0-.86-.9A3.406,3.406,0,0,0,3.783,0,3.641,3.641,0,0,0,1.075,1.179,4.232,4.232,0,0,0,0,4.069a5.04,5.04,0,0,0,1.343,3.3,28.636,28.636,0,0,0,3.362,3.155c.466.4.994.847,1.542,1.326a.795.795,0,0,0,1.047,0c.548-.479,1.076-.93,1.542-1.327A28.62,28.62,0,0,0,12.2,7.368a5.039,5.039,0,0,0,1.343-3.3,4.232,4.232,0,0,0-1.074-2.89Zm0,0"
              transform="translate(0)"/>
    </symbol>
    <symbol id="icon-search" viewBox="0 0 512.005 512.005">
        <g>
            <g>
                <path d="M505.749,475.587l-145.6-145.6c28.203-34.837,45.184-79.104,45.184-127.317c0-111.744-90.923-202.667-202.667-202.667
			S0,90.925,0,202.669s90.923,202.667,202.667,202.667c48.213,0,92.48-16.981,127.317-45.184l145.6,145.6
			c4.16,4.16,9.621,6.251,15.083,6.251s10.923-2.091,15.083-6.251C514.091,497.411,514.091,483.928,505.749,475.587z
			 M202.667,362.669c-88.235,0-160-71.765-160-160s71.765-160,160-160s160,71.765,160,160S290.901,362.669,202.667,362.669z"/>
            </g>
        </g>
        <g>
        </g>
        <g>
        </g>
        <g>
        </g>
        <g>
        </g>
        <g>
        </g>
        <g>
        </g>
        <g>
        </g>
        <g>
        </g>
        <g>
        </g>
        <g>
        </g>
        <g>
        </g>
        <g>
        </g>
        <g>
        </g>
        <g>
        </g>
        <g>
        </g>
    </symbol>
    <symbol id="icon-send-arrow" viewBox="0 0 16.167 15.01">
        <path d="M15.832,23,.82,16.072a.58.58,0,0,0-.691.162.574.574,0,0,0-.014.709l4.936,6.582L.116,30.107a.577.577,0,0,0,.7.871l15.011-6.928a.577.577,0,0,0,0-1.048Z"
              transform="translate(0 -16.02)"/>
    </symbol>
    <symbol id="icon-share" viewBox="0 0 13.11 11.956">
        <path d="M13.111,6.474,7.662.5V4.064H6.5a6.5,6.5,0,0,0-6.5,6.5v1.889l.515-.564A9.233,9.233,0,0,1,7.335,8.884h.328v3.564Zm0,0"
              transform="translate(-0.001 -0.5)"/>
    </symbol>
    <symbol id="icon-twitter" viewBox="0 0 13.76 13.472">
        <g transform="translate(0)">
            <path d="M13.76,49.595a5.123,5.123,0,0,1-1.625.537,3.342,3.342,0,0,0,1.241-1.879,5.1,5.1,0,0,1-1.789.823A2.63,2.63,0,0,0,9.526,48a3.151,3.151,0,0,0-2.819,3.4,4.193,4.193,0,0,0,.065.775A7.637,7.637,0,0,1,.958,48.62a3.972,3.972,0,0,0-.386,1.718,3.631,3.631,0,0,0,1.253,2.825A2.434,2.434,0,0,1,.55,52.744v.037a3.321,3.321,0,0,0,2.26,3.34,2.366,2.366,0,0,1-.74.112,2.084,2.084,0,0,1-.534-.058,2.974,2.974,0,0,0,2.636,2.368,5.091,5.091,0,0,1-3.5,1.45A4.4,4.4,0,0,1,0,59.946a7,7,0,0,0,4.327,1.525c5.191,0,8.029-5.181,8.029-9.673,0-.15,0-.3-.01-.439A6.4,6.4,0,0,0,13.76,49.595Z"
                  transform="translate(0 -48)"/>
        </g>
    </symbol>
    <symbol id="icon-user" viewBox="0 0 15.5 18.406">
        <g transform="translate(3.084)">
            <path d="M125.666,0a4.666,4.666,0,1,0,4.666,4.666A4.672,4.672,0,0,0,125.666,0Z"
                  transform="translate(-121)"/>
        </g>
        <g transform="translate(0 11.078)">
            <path d="M44.535,302.012A6.617,6.617,0,0,0,39.783,300H37.717a6.617,6.617,0,0,0-4.752,2.012,6.812,6.812,0,0,0-1.964,4.8.518.518,0,0,0,.517.518H45.983a.518.518,0,0,0,.517-.518A6.812,6.812,0,0,0,44.535,302.012Z"
                  transform="translate(-31 -300)"/>
        </g>
    </symbol>
    <symbol id="icon-close" viewBox="0 0 28 28">
        <path d="M21 7L7 21" stroke-width="3" stroke-linecap="round" stroke-linejoin="round"/>
        <path d="M7 7L21 21" stroke-width="3" stroke-linecap="round" stroke-linejoin="round"/>
    </symbol>
</svg>